<svg width="1920" height="550" viewBox="0 0 1920 550" fill="none" xmlns="http://www.w3.org/2000/svg">
<g clip-path="url(#clip0_148_17635)">
<path fill-rule="evenodd" clip-rule="evenodd" d="M717.458 22H669.628V186.194H621.797V117.661H573.967V40.5611H526.136V132.653H478.306V216.178H430.475V132.653H382.644V28.425H334.814V79.1111H286.983V186.194H239.153V46.9861H191.322V233.311H143.492V40.5611H95.6611V139.078H47.8306V64.8333H0V288.281V300.417V533.144H1028V481.031V288.281V176.914H1004.44V132.653H956.611V22H908.781V80.5389H860.95V164.064H813.119V64.1194H765.289V104.097H717.458V22Z" fill="#684723"/>
<path fill-rule="evenodd" clip-rule="evenodd" d="M1705.54 22.1387H1659.57V186.287H1613.6V117.773H1567.63V40.6945H1521.66V132.76H1475.69V216.262H1429.72V132.76H1383.76V28.5619H1337.79V79.2336H1291.82V186.287H1245.85V47.1177H1199.88V233.39H1153.91V40.6945H1107.94V139.183H1061.97V64.9599H1016V288.344V300.477V533.139H2004V481.039V288.344V177.009H1981.36V132.76H1935.39V22.1387H1889.42V80.661H1843.45V164.162H1797.48V64.2462H1751.51V104.213H1705.54V22.1387Z" fill="#684723"/>
<path fill-rule="evenodd" clip-rule="evenodd" d="M717.458 39.1338H669.628V203.328H621.797V134.795H573.967V57.6949H526.136V149.787H478.306V233.312H430.475V149.787H382.644V45.5588H334.814V96.2449H286.983V203.328H239.153V64.1199H191.322V250.445H143.492V57.6949H95.6611V156.212H47.8306V81.9671H0V305.414V317.55V550.278H1028V498.164V305.414V194.048H1004.44V149.787H956.611V39.1338H908.781V97.6727H860.95V181.198H813.119V81.2532H765.289V121.231H717.458V39.1338Z" fill="#E2B481"/>
<path fill-rule="evenodd" clip-rule="evenodd" d="M1705.54 39.1387H1659.57V203.287H1613.6V134.773H1567.63V57.6945H1521.66V149.76H1475.69V233.262H1429.73V149.76H1383.76V45.5619H1337.79V96.2336H1291.82V203.287H1245.85V64.1177H1199.88V250.39H1153.91V57.6945H1107.94V156.183H1061.97V81.9599H1016V305.344V317.477V550.139H2004V498.04V305.344V194.009H1981.36V149.76H1935.39V39.1387H1889.42V97.661H1843.45V181.162H1797.48V81.2462H1751.51V121.213H1705.54V39.1387Z" fill="#E2B481"/>
</g>
<defs>
<clipPath id="clip0_148_17635">
<rect width="1920" height="550" fill="white"/>
</clipPath>
</defs>
</svg>
