<svg width="29" height="29" viewBox="0 0 29 29" fill="none" xmlns="http://www.w3.org/2000/svg">
<path fill-rule="evenodd" clip-rule="evenodd" d="M24.7 17.2C24.2 17.5 23.6 17.6 23.2 17.3C22.6 17 22.3 16.2 22.3 15.2V12C22.3 10.5 21.7 9.4 20.7 9.1C19 8.6 17.7 10.7 17.2 11.5L14.2 16.4V10.4C14.2 9 13.7 8.2 12.9 8C12.3 7.8 11.5 7.9 10.7 9.1L4 19.9C3.1 18.2 2.6 16.3 2.6 14.3C2.6 7.8 7.8 2.5 14.2 2.5C20.6 2.5 25.8 7.9 25.8 14.4C25.9 15.7 25.5 16.7 24.7 17.2ZM28.4 14.4C28.4 6.4 22 0 14.2 0C6.4 0 0 6.5 0 14.4C0 22.3 6.4 28.8 14.2 28.8C17.8 28.8 21.2 27.4 23.9 24.9C24.4 24.4 24.5 23.6 24 23C23.5 22.5 22.7 22.4 22.2 22.9C20.1 24.9 17.2 26.1 14.3 26.1C10.9 26.1 7.8 24.6 5.6 22.2L11.7 12.4V16.9C11.7 19.1 12.5 19.8 13.2 20C13.9 20.2 15 20.1 16.1 18.2L19.4 12.8C19.5 12.6 19.6 12.5 19.7 12.3V15C19.7 17 20.5 18.6 21.9 19.4C23.2 20.1 24.8 20.1 26.1 19.2C27.7 18.5 28.5 16.6 28.4 14.4Z" fill="#634225"/>
</svg>
